HIERARCHY
ROOT Hips
{
  OFFSET 39.2232 98.7909 4.19108
  CHANNELS 6 Xposition Yposition Zposition Zrotation Xrotation Yrotation
  JOINT spine
  {
    OFFSET 0 8.30103 0.477351
    CHANNELS 3 Zrotation Xrotation Yrotation
    JOINT spine1
    {
      OFFSET 0 10.4565 0
      CHANNELS 3 Zrotation Xrotation Yrotation
      JOINT spine2
      {
        OFFSET 0 10.0192 0
        CHANNELS 3 Zrotation Xrotation Yrotation
        JOINT Neck
        {
          OFFSET 0 25.7235 1.22641
          CHANNELS 3 Zrotation Xrotation Yrotation
          JOINT Head
          {
            OFFSET 0 7.77175 0
            CHANNELS 3 Zrotation Xrotation Yrotation
            End Site
            {
              OFFSET 0 18.812 -6.20394
            }
          }
        }
        JOINT RightShoulder
        {
          OFFSET -4.2188 10.82 -0.587439
          CHANNELS 3 Zrotation Xrotation Yrotation
          JOINT RightArm
          {
            OFFSET 0 14.1914 0
            CHANNELS 3 Zrotation Xrotation Yrotation
            JOINT RightArmRoll
            {
              OFFSET 0 7.16408 0
              CHANNELS 3 Zrotation Xrotation Yrotation
              JOINT RightForeArm
              {
                OFFSET 0 20.8665 0
                CHANNELS 3 Zrotation Xrotation Yrotation
                JOINT RightForeArmRoll
                {
                  OFFSET 0 8.03921 0
                  CHANNELS 3 Zrotation Xrotation Yrotation
                  JOINT RightHand
                  {
                    OFFSET 0 16.133 0
                    CHANNELS 3 Zrotation Xrotation Yrotation
                    End Site
                    {
                      OFFSET 0 0 0
                    }
                  }
                }
              }
            }
          }
        }
        JOINT LeftShoulder
        {
          OFFSET 4.2188 10.82 -0.587439
          CHANNELS 3 Zrotation Xrotation Yrotation
          JOINT LeftArm
          {
            OFFSET 0 14.1914 0
            CHANNELS 3 Zrotation Xrotation Yrotation
            JOINT LeftArmRoll
            {
              OFFSET 0 7.16408 0
              CHANNELS 3 Zrotation Xrotation Yrotation
              JOINT LeftForeArm
              {
                OFFSET 0 20.8665 0
                CHANNELS 3 Zrotation Xrotation Yrotation
                JOINT LeftForeArmRoll
                {
                  OFFSET 0 8.03921 0
                  CHANNELS 3 Zrotation Xrotation Yrotation
                  JOINT LeftHand
                  {
                    OFFSET 0 16.133 0
                    CHANNELS 3 Zrotation Xrotation Yrotation
                    End Site
                    {
                      OFFSET 0 0 0
                    }
                  }
                }
              }
            }
          }
        }
      }
    }
  }
  JOINT RightUpLeg
  {
    OFFSET -7.35773 -1.34921 -1.13181
    CHANNELS 3 Zrotation Xrotation Yrotation
    JOINT RightUpLegRoll
    {
      OFFSET 0 18.9168 0
      CHANNELS 3 Zrotation Xrotation Yrotation
      JOINT RightLeg
      {
        OFFSET 0 -23.4256 0
        CHANNELS 3 Zrotation Xrotation Yrotation
        JOINT RightLegRoll
        {
          OFFSET 0 23.5023 0
          CHANNELS 3 Zrotation Xrotation Yrotation
          JOINT RightFoot
          {
            OFFSET 0 19.5617 0
            CHANNELS 3 Zrotation Xrotation Yrotation
            JOINT RightToeBase
            {
              OFFSET 0 16.3526 0
              CHANNELS 3 Zrotation Xrotation Yrotation
              End Site
              {
                OFFSET 0.00693125 7.91944 -0.912837
              }
            }
          }
        }
      }
    }
  }
  JOINT LeftUpLeg
  {
    OFFSET 7.35773 -1.34921 -1.13181
    CHANNELS 3 Zrotation Xrotation Yrotation
    JOINT LeftUpLegRoll
    {
      OFFSET 0 18.9169 0
      CHANNELS 3 Zrotation Xrotation Yrotation
      JOINT LeftLeg
      {
        OFFSET 0 23.4255 0
        CHANNELS 3 Zrotation Xrotation Yrotation
        JOINT LeftLegRoll
        {
          OFFSET 0 23.7195 0
          CHANNELS 3 Zrotation Xrotation Yrotation
          JOINT LeftFoot
          {
            OFFSET 0 19.3444 0
            CHANNELS 3 Zrotation Xrotation Yrotation
            JOINT LeftToeBase
            {
              OFFSET 0 16.3526 0
              CHANNELS 3 Zrotation Xrotation Yrotation
              End Site
              {
                OFFSET -0.0310629 7.91944 -0.912836
              }
            }
          }
        }
      }
    }
  }
}
MOTION
Frames: 9
Frame Time: 0.00208333
39.1118 98.8219 4.13752 1.14362 -1.47613 1.75871 -0.0263763 -2.45932 0.122425 -0.044745 -0.911494 0.245497 -0.0476021 0.733574 0.246175 -2.36143 34.5983 -0.239298 2.51457 -15.7165 -0.670004 27.2859 -12.283 -8.61498 -23.8745 52.6846 117.422 2.84186e-006 1.67116e-006 4.73337e-006 -33.9451 69.7769 39.2657 2.32126e-006 -2.18614e-006 -3.00492 8.03025 -4.95138 0.69763 -33.7847 -9.04806 5.15885 8.02971 49.3152 -105.499 -6.36111e-015 9.93923e-015 4.77083e-015 13.1386 61.344 -13.6984 4.47003e-006 2.07935e-006 3.00964 -8.0289 -4.95146 -0.69768 175.609 -0.0831895 1.21031 180 7.01555e-015 178.957 176.013 5.28765 179.77 4.15996e-007 -3.04926e-006 0.0553086 -18.5879 67.9438 19.5049 8.13649 25.2326 -3.48773 -176.136 -0.353968 1.08048 4.54188e-006 -4.6773e-006 -1.11864 -3.6317 -8.11724 0.379059 4.11261e-006 -3.5384e-006 -0.0949195 18.0874 67.1546 -18.8604 -8.13649 25.2327 3.48774 
39.1123 98.8216 4.13271 1.14032 -1.48184 1.7617 -0.0273193 -2.4568 0.122326 -0.0460705 -0.905918 0.245552 -0.0489206 0.73915 0.246267 -2.30076 34.5733 -0.256739 2.47827 -15.7134 -0.668565 27.2854 -12.2919 -8.6245 -24.0153 52.7204 117.416 2.84186e-006 1.67116e-006 4.73337e-006 -34.0822 70.0254 39.4388 2.32126e-006 -2.18614e-006 -3.00492 8.03025 -4.95138 0.69763 -33.799 -9.02702 5.13794 8.21441 49.3691 -105.693 9.54166e-015 -1.31198e-014 -3.18055e-015 13.1383 61.5708 -13.7597 4.47003e-006 2.07935e-006 3.00963 -8.0289 -4.95146 -0.69768 175.614 -0.0927419 1.20889 180 7.01555e-015 178.957 176.012 5.2787 179.769 4.15996e-007 -3.04926e-006 0.0552521 -18.5836 67.9387 19.5003 8.13649 25.2326 -3.48773 -176.13 -0.345298 1.07629 4.54188e-006 -4.6773e-006 -1.1187 -3.63086 -8.13759 0.37934 4.11261e-006 -3.5384e-006 -0.0949809 18.0904 67.1585 -18.8636 -8.13649 25.2327 3.48774 
39.1094 98.8251 4.13004 1.13713 -1.48707 1.76471 -0.0282861 -2.45449 0.122198 -0.0474875 -0.900781 0.245541 -0.050331 0.744287 0.246293 -2.2408 34.5491 -0.273848 2.4429 -15.7099 -0.666926 27.2853 -12.3004 -8.63371 -24.1409 52.7585 117.4 2.84186e-006 1.67116e-006 4.73337e-006 -34.2156 70.2651 39.6062 2.32126e-006 -2.18614e-006 -3.00492 8.03025 -4.95138 0.69763 -33.8147 -9.00601 5.11712 8.38963 49.4217 -105.875 6.36111e-015 6.36111e-015 -3.18055e-015 13.1371 61.7933 -13.8185 4.47003e-006 2.07935e-006 3.00963 -8.0289 -4.95146 -0.69768 175.619 -0.101781 1.20749 180 7.01555e-015 178.957 176.01 5.26982 179.768 4.15996e-007 -3.04926e-006 0.0551956 -18.5795 67.9338 19.4958 8.13649 25.2326 -3.48773 -176.125 -0.336565 1.07226 4.54188e-006 -4.6773e-006 -1.11877 -3.63003 -8.15727 0.379599 4.11261e-006 -3.5384e-006 -0.0950409 18.0933 67.1623 -18.8668 -8.13649 25.2327 3.48774 
39.1101 98.826 4.12882 1.1341 -1.49176 1.76763 -0.0292667 -2.45239 0.122037 -0.0489913 -0.896136 0.245454 -0.0518284 0.748932 0.246245 -2.18231 34.5259 -0.290416 2.409 -15.7056 -0.6651 27.2857 -12.3082 -8.64217 -24.2512 52.7983 117.374 2.84186e-006 1.67116e-006 4.73337e-006 -34.3451 70.4943 39.7671 2.32126e-006 -2.18614e-006 -3.00492 8.03025 -4.95138 0.69763 -33.8317 -8.98517 5.09656 8.55428 49.473 -106.044 6.36111e-015 -5.56597e-015 -6.36111e-015 13.1351 62.0105 -13.8743 4.47003e-006 2.07935e-006 3.00962 -8.0289 -4.95146 -0.69768 175.623 -0.1101 1.20612 180 7.01555e-015 178.957 176.009 5.26122 179.768 4.15996e-007 -3.04926e-006 0.0551392 -18.5755 67.9291 19.4916 8.13649 25.2326 -3.48773 -176.119 -0.327874 1.06841 4.54188e-006 -4.6773e-006 -1.11885 -3.62925 -8.17605 0.379823 4.11261e-006 -3.5384e-006 -0.095101 18.096 67.166 -18.8698 -8.13649 25.2327 3.48774 
39.1083 98.8224 4.12529 1.13127 -1.49587 1.77033 -0.0302509 -2.45052 0.121838 -0.0505769 -0.892034 0.245282 -0.0534082 0.753034 0.246112 -2.12604 34.5039 -0.306236 2.3771 -15.7003 -0.663096 27.2872 -12.315 -8.64942 -24.346 52.8395 117.338 2.84186e-006 1.67116e-006 4.73337e-006 -34.4704 70.7115 39.921 2.32126e-006 -2.18614e-006 -3.00492 8.03025 -4.95138 0.69763 -33.85 -8.96466 5.07641 8.70734 49.523 -106.198 6.36111e-015 4.77083e-015 -1.27222e-014 13.1321 62.2213 -13.9269 4.47003e-006 2.07935e-006 3.00962 -8.0289 -4.95146 -0.69768 175.628 -0.117494 1.2048 180 7.01555e-015 178.957 176.008 5.2531 179.767 4.15996e-007 -3.04926e-006 0.0550829 -18.5718 67.9246 19.4876 8.13649 25.2326 -3.48773 -176.114 -0.319329 1.06477 4.54188e-006 -4.6773e-006 -1.11892 -3.62856 -8.19371 0.380001 4.11261e-006 -3.5384e-006 -0.0951627 18.0986 67.1693 -18.8725 -8.13649 25.2327 3.48774 
39.1054 98.8211 4.12627 1.12869 -1.49934 1.77269 -0.0312288 -2.44891 0.121595 -0.0522396 -0.888527 0.245018 -0.0550654 0.756541 0.245886 -2.07275 34.4831 -0.3211 2.34772 -15.694 -0.660926 27.29 -12.3203 -8.65502 -24.4253 52.8817 117.293 2.84186e-006 1.67116e-006 4.73337e-006 -34.5908 70.9152 40.067 2.32126e-006 -2.18614e-006 -3.00492 8.03025 -4.95138 0.69763 -33.8696 -8.94463 5.05682 8.84772 49.5714 -106.336 6.36111e-015 7.15625e-015 -1.59028e-015 13.1282 62.4248 -13.9757 4.47003e-006 2.07935e-006 3.00961 -8.0289 -4.95146 -0.69768 175.632 -0.123759 1.20355 180 7.01555e-015 178.957 176.007 5.2457 179.767 4.15996e-007 -3.04926e-006 0.0550266 -18.5684 67.9206 19.484 8.13649 25.2326 -3.48773 -176.11 -0.311036 1.06137 4.54188e-006 -4.6773e-006 -1.11899 -3.62797 -8.21 0.38012 4.11261e-006 -3.5384e-006 -0.0952274 18.1009 67.1724 -18.875 -8.13649 25.2327 3.48774 
39.1033 98.8212 4.12271 1.12642 -1.50214 1.77458 -0.0321903 -2.44757 0.121305 -0.0539745 -0.885668 0.24465 -0.0567954 0.759399 0.245556 -2.02319 34.4639 -0.334802 2.32138 -15.6863 -0.6586 27.2945 -12.3238 -8.65852 -24.4888 52.9246 117.238 2.84186e-006 1.67116e-006 4.73337e-006 -34.7059 71.1037 40.2043 2.32126e-006 -2.18614e-006 -3.00492 8.03025 -4.95138 0.69763 -33.8904 -8.92523 5.03796 8.97436 49.6183 -106.456 1.32417e-031 9.54166e-015 -7.95139e-016 13.1233 62.62 -14.0204 4.47003e-006 2.07935e-006 3.00961 -8.0289 -4.95146 -0.69768 175.635 -0.128688 1.20239 180 7.01555e-015 178.957 176.006 5.23923 179.767 4.15996e-007 -3.04926e-006 0.0549704 -18.5655 67.9171 19.4808 8.13649 25.2326 -3.48773 -176.105 -0.303099 1.05822 4.54188e-006 -4.6773e-006 -1.11907 -3.62753 -8.22471 0.380168 4.11261e-006 -3.5384e-006 -0.0952968 18.1029 67.1751 -18.8771 -8.13649 25.2327 3.48774 
39.1071 98.8212 4.11766 1.12448 -1.5042 1.77589 -0.0331253 -2.44653 0.120963 -0.0557768 -0.883509 0.244171 -0.0585933 0.761559 0.245114 -1.97812 34.4462 -0.347134 2.29861 -15.677 -0.656129 27.3011 -12.325 -8.65947 -24.5365 52.9678 117.175 2.84186e-006 1.67116e-006 4.73337e-006 -34.8152 71.2754 40.3322 2.32126e-006 -2.18614e-006 -3.00492 8.03025 -4.95138 0.69763 -33.9123 -8.90661 5.01999 9.08621 49.6636 -106.559 9.54166e-015 7.95139e-016 -8.74653e-015 13.1174 62.8057 -14.0606 4.47003e-006 2.07935e-006 3.0096 -8.0289 -4.95146 -0.69768 175.639 -0.132076 1.20132 180 7.01555e-015 178.957 176.005 5.23392 179.766 4.15996e-007 -3.04926e-006 0.0549143 -18.563 67.9141 19.4781 8.13649 25.2326 -3.48773 -176.102 -0.295625 1.05535 4.54188e-006 -4.6773e-006 -1.11915 -3.62725 -8.2376 0.380131 4.11261e-006 -3.5384e-006 -0.0953723 18.1045 67.1773 -18.8788 -8.13649 25.2327 3.48774 
39.1049 98.8168 4.11573 1.12282 -1.50528 1.77705 -0.0340866 -2.44586 0.120586 -0.0577656 -0.882232 0.243613 -0.0605794 0.762836 0.244593 -1.93472 34.4313 -0.359236 2.27805 -15.6676 -0.653707 27.3086 -12.3248 -8.65897 -24.5654 53.0129 117.098 2.84186e-006 1.67116e-006 4.73337e-006 -34.9188 71.4348 40.4506 2.32126e-006 -2.18614e-006 -3.00492 8.03025 -4.95138 0.69763 -33.9347 -8.8884 5.0025 9.18495 49.7082 -106.644 3.18055e-015 5.56597e-015 -6.36111e-015 13.1094 62.9856 -14.0959 4.47003e-006 2.07935e-006 3.0096 -8.0289 -4.95146 -0.69768 175.642 -0.133971 1.20033 180 7.01555e-015 178.957 176.004 5.22933 179.766 4.15996e-007 -3.04926e-006 0.0548583 -18.5608 67.9115 19.4758 8.13649 25.2326 -3.48773 -176.098 -0.28803 1.05274 4.54188e-006 -4.6773e-006 -1.11923 -3.62709 -8.24913 0.380013 4.11261e-006 -3.5384e-006 -0.0954511 18.1059 67.1791 -18.8801 -8.13649 25.2327 3.48774 
